<?xml version="1.0" encoding="utf-8"?>
<!-- Generator: Adobe Illustrator 27.6.1, SVG Export Plug-In . SVG Version: 6.00 Build 0)  -->
<svg version="1.1" xmlns="http://www.w3.org/2000/svg" xmlns:xlink="http://www.w3.org/1999/xlink" x="0px" y="0px"
	 viewBox="0 0 927.9 349.4" style="enable-background:new 0 0 927.9 349.4;" xml:space="preserve">
<style type="text/css">
	.st0{fill:#35CA71;}
</style>
<g id="Layer_1">
</g>
<g id="_x3C_Layer_x3E_">
	<path class="st0" d="M313.9,0h-267C21,0,0,21,0,46.9v255.6c0,25.9,21,46.9,46.9,46.9h267c25.9,0,46.9-21,46.9-46.9V46.9
		C360.9,21,339.8,0,313.9,0z M316.9,283c0,12.4-10.1,22.4-22.4,22.4H108.8c-8.1,0-15.5-4.3-19.5-11.4c-4-7-3.9-15.7,0.3-22.6
		l43.6-72.9H66.4c-7.8,0-15.1-4.1-19.1-10.7c-4.1-6.7-4.4-15.4-0.7-21.5L112.9,55c6.4-10.6,20.2-14.1,30.8-7.7
		c10.6,6.4,14.1,20.2,7.7,30.8l-45.1,75.6h66.4c8.1,0,15.5,4.3,19.5,11.4c4,7,3.9,15.7-0.3,22.6l-43.6,72.9H272V66.4
		C272,54,282,44,294.4,44c12.4,0,22.4,10.1,22.4,22.4V283z M560.4,193.8c-3.7,0-7.2,1.6-9.6,4.5c-2.5,2.9-3.5,6.7-2.9,10.6
		c0.8,5.1,4.9,9.2,9.9,10.2c0.8,0.2,1.7,0.2,2.5,0.2c3.1,0,6-1,8.4-3c2.9-2.4,4.6-5.9,4.6-9.6C573.4,199.4,567.7,193.8,560.4,193.8z
		 M550.5,305.5h20.2V228h-20.2V305.5z M509.3,136.4h-61.6v-28.6h51.7V90.1h-51.7V61.5h59.9V44h-80.5v110h82.2V136.4z M484.9,283.3
		l-35.3-87.8h-22.4L473.6,305l0.2,0.5H496l46-108.8l0.5-1.2h-22.4L484.9,283.3z M598.8,154v-41.6c0-13.6-3-23.2-9.3-29.4
		c-5.6-5.5-13.7-8.2-24.7-8.2c-0.4,0-0.9,0-1.4,0c-11.6,0.2-18.3,5.7-22.2,11.2v-9.5h-19.6V154h20.2v-36.7c0-9.8,2.1-16.6,6.3-20.7
		c3.3-3.3,7.9-4.9,14-4.9c0.1,0,0.3,0,0.4,0c11.2,0.2,16,6.4,16,20.7V154H598.8z M708.8,226.3c-12.6,0-23.1,4-30.3,11.6
		c-7.3,7.7-11,19-10.4,31.9c1,20.3,18.9,37.1,39.8,37.4c0.3,0,0.6,0,0.9,0c32.7,0,37.4-25.6,37.4-25.8l0.2-1h-20.7l-0.2,0.6
		c0,0.1-2.7,9.8-16.5,9.8c-11.5,0-19.3-6.6-20.5-17.3h58.8l0.1-0.8c1.3-14.6-1.9-26.7-9.3-34.8C731.1,230.3,721,226.3,708.8,226.3z
		 M688.5,258.5c1.3-7.5,7.3-15.8,20.4-15.8c5.8,0,11.1,2,14.5,5.6c2.7,2.8,4.1,6.3,4.2,10.2H688.5z M817.7,85.3
		c-5.6-6.5-13.4-10.1-22.5-10.4c-0.6,0-1.2,0-1.8,0c-11.8,0-21.7,3.6-28.9,10.6c-7.5,7.2-11.6,17.9-11.6,30
		c0,12.2,4.1,22.8,11.7,29.9c7.7,7.3,18.6,10.8,31.5,10c8.4-0.4,15.7-3.9,21.2-10.1v17.7c0,2.4-2,4.4-4.4,4.4h-53.1l-0.2,17.4h56.2
		c12,0,21.7-9.8,21.7-21.7V76.5h-19.7V85.3z M795.9,139.1c-13.2,0-22.4-9.7-22.4-23.6c0-14.7,8.8-24.2,22.4-24.2
		c13.8,0,21.7,8.7,21.7,23.9C817.7,129.8,809.1,139.1,795.9,139.1z M650.8,283.8v-88.3h-20.2v85.7c0,13.4,10.9,24.3,24.3,24.3h6.9
		V288h-6.8C652.7,288,650.8,286.1,650.8,283.8z M608.6,283.8v-88.3h-20.2v85.7c0,13.4,10.9,24.3,24.3,24.3h6.9V288h-6.8
		C610.5,288,608.6,286.1,608.6,283.8z M719.9,86v-9.5h-19.7V154h20.2v-31.2c0.2-23.9,3.5-28.8,19.5-28.8h9.3V76.5h-9.8
		C731.1,76.5,724.5,79.7,719.9,86z M906.5,76.5l-20.3,51.9L866.9,77l-0.2-0.6h-21.4l31.5,75.5l-4.2,10.7c-2,4-2.2,4.6-7,4.6h-13.8
		v17.5h13.8c18,0,20.9-7.2,26.9-21.4l34.8-85.7l0.5-1.2H906.5z M650,155.7c32.7,0,37.4-25.6,37.4-25.8l0.2-1h-20.7l-0.2,0.6
		c-0.1,0.4-2.8,9.8-16.5,9.8c-11.5,0-19.3-6.6-20.5-17.3h58.8l0.1-0.8c1.3-14.6-1.9-26.7-9.3-34.8c-6.9-7.6-17-11.6-29.3-11.6
		c-12.6,0-23.1,4-30.3,11.6c-7.3,7.7-11,19-10.4,31.9c1,20.3,18.9,37.1,39.8,37.4C649.4,155.7,649.7,155.7,650,155.7z M650.2,91.2
		c5.8,0,11.1,2,14.5,5.6c2.7,2.8,4.1,6.3,4.2,10.2h-39.1C631.1,99.5,637.1,91.2,650.2,91.2z"/>
</g>
</svg>
