<?xml version="1.0" encoding="UTF-8"?>
<!-- Created with Inkscape (http://www.inkscape.org/) -->
<svg width="783.84" height="232.79" version="1.1" viewBox="0 0 783.84 232.79" xml:space="preserve" xmlns="http://www.w3.org/2000/svg"><g transform="matrix(1.3333 0 0 -1.3333 0 232.79)"><g transform="scale(.1)"><g fill="#fff"><path d="m2671 1481.4c319.65 0 518.02-249.1 518.02-575.35v-48.496h-842.07c15.42-180.75 147.71-330.68 361.53-330.68 112.44 0 235.86 44.098 315.22 125.66l92.58-130.06c-105.78-103.59-255.7-158.71-427.65-158.71-317.43 0-551.1 224.84-551.1 559.92 0 308.62 222.66 557.72 533.47 557.72m-326.26-480.56h650.31c-4.4 141.08-99.21 317.43-324.05 317.43-213.82 0-315.25-171.95-326.26-317.43"/><path d="m3365.4 626.08v654.73h-176.38v174.15h176.38v290.97h198.37v-290.97h216.04v-174.15h-216.04v-610.63c0-74.961 35.3-130.07 103.61-130.07 46.31 0 88.18 19.852 108.03 41.879l50.72-149.9c-41.92-39.68-103.64-68.32-207.25-68.32-167.51 0-253.48 94.781-253.48 262.31"/><path d="m4418.4 1481.4c200.63 0 321.87-83.76 399.01-187.37l-132.25-121.24c-63.95 90.37-149.91 132.27-257.92 132.27-209.43 0-343.9-160.94-343.9-381.38 0-220.45 134.47-383.58 343.9-383.58 108.01 0 193.97 44.097 257.92 132.28l132.25-121.24c-77.14-103.62-198.38-187.38-399.01-187.38-321.83 0-542.27 240.27-542.27 559.92 0 319.65 220.44 557.72 542.27 557.72"/><path d="m5680.3 390.21v685.58c0 176.36-90.37 229.27-227.05 229.27-123.46 0-235.91-74.96-293.19-154.32v-760.53h-198.41v1355.7h198.41v-440.88c70.52 85.97 213.83 176.34 376.93 176.34 227.06 0 341.72-114.62 341.72-339.48v-751.71h-198.41"/><path d="m2193.4 194.14h108.57v-22.813h-82.16v-39.527h76.03v-21.539h-76.03v-44.153h83.65v-22.82h-110.06v150.85"/><path d="m2323.4 152.52h22.82v-16.071l0.42-0.398c3.67 6.039 8.46 10.777 14.37 14.269 5.91 3.43 12.46 5.141 19.64 5.141 11.97 0 21.42-3.09 28.32-9.27 6.89-6.23 10.35-15.511 10.35-27.89v-75.012h-24.09v68.68c-0.28 8.57-2.11 14.793-5.49 18.691-3.39 3.852-8.66 5.789-15.85 5.789-4.09 0-7.74-0.73-10.99-2.199-3.23-1.48-5.98-3.539-8.22-6.129-2.27-2.621-4.01-5.66-5.3-9.199-1.27-3.512-1.9-7.25-1.9-11.203v-64.43h-24.08v109.23"/><path d="m2459.1 91.66c0-4.2188 0.6-8.3204 1.79-12.23 1.2-3.9492 3-7.3984 5.39-10.379 2.39-2.9414 5.42-5.3008 9.09-7.0703 3.65-1.7422 8.03-2.6211 13.1-2.6211 7.04 0 12.7 1.5 17 4.539 4.29 3.0313 7.51 7.5704 9.61 13.613h22.81c-1.26-5.8906-3.44-11.203-6.53-15.832-3.1-4.6484-6.85-8.5703-11.21-11.719-4.36-3.1914-9.25-5.582-14.68-7.1992-5.42-1.6211-11.09-2.4101-17-2.4101-8.6 0-16.2 1.3789-22.83 4.207-6.61 2.832-12.22 6.75-16.78 11.82-4.59 5.0703-8.03 11.141-10.37 18.18-2.31 7.0508-3.47 14.793-3.47 23.23 0 7.7499 1.22 15.121 3.7 22.082 2.46 6.981 5.98 13.109 10.55 18.379 4.58 5.289 10.11 9.461 16.59 12.59 6.47 3.101 13.79 4.629 21.97 4.629 8.6 0 16.3-1.797 23.14-5.399 6.83-3.558 12.5-8.34 17.01-14.242 4.49-5.906 7.78-12.719 9.82-20.379 2.04-7.699 2.55-15.59 1.58-23.789zm56.19 15.86c-0.28 3.8-1.1 7.449-2.42 10.992-1.34 3.508-3.17 6.566-5.5 9.187-2.33 2.602-5.14 4.723-8.46 6.34-3.3 1.621-6.99 2.422-11.08 2.422-4.23 0-8.06-0.742-11.52-2.211-3.45-1.48-6.41-3.531-8.87-6.129-2.47-2.633-4.44-5.66-5.91-9.199-1.47-3.5-2.3-7.313-2.43-11.402h56.19"/><path d="m2556.7 152.52h22.6v-21.129h0.43c0.7 2.949 2.08 5.828 4.11 8.668 2.05 2.8 4.51 5.39 7.4 7.722 2.88 2.289 6.08 4.18 9.61 5.598 3.52 1.383 7.12 2.082 10.79 2.082 2.81 0 4.74-0.039 5.81-0.199 1.04-0.153 2.12-0.293 3.26-0.41v-23.25c-1.69 0.289-3.42 0.527-5.17 0.738-1.76 0.199-3.49 0.32-5.17 0.32-4.1 0-7.93-0.801-11.52-2.422-3.6-1.617-6.73-4.027-9.41-7.187-2.67-3.192-4.79-7.071-6.33-11.731-1.55-4.66-2.33-10-2.33-16.058v-51.973h-24.08v109.23"/><path d="m2730 49.012c0-16.5-4.61-28.773-13.84-36.871-9.22-8.1015-22.5-12.141-39.84-12.141-5.47 0-11.01 0.55859-16.57 1.6797-5.57 1.1094-10.64 3.0312-15.21 5.6797-4.58 2.6914-8.41 6.2304-11.51 10.59-3.11 4.3594-4.93 9.7227-5.5 16.051h24.08c0.71-3.3789 1.91-6.1211 3.61-8.2383 1.69-2.1211 3.69-3.7734 6-4.9609 2.33-1.1992 4.9-1.9727 7.73-2.332 2.81-0.3477 5.76-0.5196 8.87-0.5196 9.7 0 16.82 2.3906 21.33 7.1914 4.5 4.7696 6.75 11.668 6.75 20.688v16.684h-0.41c-3.39-6.0429-8-10.762-13.84-14.152-5.85-3.3906-12.15-5.0703-18.9-5.0703-8.74 0-16.16 1.5117-22.3 4.5507-6.11 3.0313-11.19 7.1797-15.2 12.461-4.02 5.2695-6.95 11.371-8.78 18.27-1.82 6.8985-2.73 14.301-2.73 22.2 0 7.3 1.11 14.289 3.37 20.89 2.25 6.629 5.49 12.442 9.73 17.449 4.2 4.981 9.39 8.961 15.51 11.942 6.13 2.949 13.08 4.418 20.81 4.418 6.91 0 13.25-1.438 19.03-4.34 5.76-2.879 10.2-7.418 13.3-13.609h0.41v15h24.1zm-53.45 13.289c5.35 0 9.89 1.0976 13.62 3.2695 3.74 2.1914 6.76 5.0703 9.09 8.668 2.33 3.5898 4.01 7.6914 5.07 12.273 1.06 4.5586 1.57 9.1797 1.57 13.808 0 4.66-0.55 9.168-1.67 13.532-1.13 4.367-2.86 8.257-5.18 11.617-2.33 3.39-5.36 6.07-9.09 8.043-3.73 1.968-8.21 2.949-13.41 2.949-5.36 0-9.86-1.121-13.52-3.391-3.67-2.242-6.63-5.16-8.88-8.761-2.26-3.59-3.88-7.68-4.86-12.258-0.99-4.563-1.48-9.102-1.48-13.61 0-4.5117 0.57-8.9023 1.7-13.211 1.12-4.3008 2.84-8.1289 5.17-11.52 2.33-3.3593 5.28-6.1328 8.87-8.2226 3.6-2.1172 7.93-3.1875 13-3.1875"/><path d="m2746 152.52h26.41l28.51-81.551h0.43l27.67 81.551h25.15l-42.46-115.15c-1.98-4.9219-3.92-9.6406-5.82-14.152-1.9-4.5-4.21-8.4883-6.97-11.938-2.74-3.4415-6.16-6.1797-10.24-8.25-4.09-2.0312-9.31-3.0312-15.64-3.0312-5.63 0-11.2 0.41016-16.7 1.2617v20.277c1.98-0.2891 3.88-0.6172 5.73-0.9688 1.82-0.332 3.72-0.5 5.7-0.5 2.81 0 5.13 0.3594 6.96 1.0313 1.84 0.6992 3.35 1.7265 4.55 3.0586 1.19 1.3593 2.2 2.9492 3.06 4.7812 0.84 1.8281 1.62 3.918 2.31 6.3399l2.76 8.4296-41.41 108.81"/><path d="m2907 194.14h122.11v-22.813h-47.96v-128.04h-26.41v128.04h-47.74v22.813"/><path d="m3027.6 152.52h22.6v-21.129h0.43c0.7 2.949 2.08 5.828 4.12 8.668 2.05 2.8 4.51 5.39 7.39 7.722 2.9 2.289 6.09 4.18 9.61 5.598 3.53 1.383 7.12 2.082 10.79 2.082 2.82 0 4.74-0.039 5.81-0.199 1.04-0.153 2.14-0.293 3.26-0.41v-23.25c-1.69 0.289-3.42 0.527-5.16 0.738-1.77 0.199-3.5 0.32-5.18 0.32-4.09 0-7.93-0.801-11.52-2.422-3.6-1.617-6.72-4.027-9.41-7.187-2.66-3.192-4.78-7.071-6.33-11.731s-2.33-10-2.33-16.058v-51.973h-24.08v109.23"/><path d="m3196.2 67.578c0-2.9375 0.39-5.0664 1.14-6.3281 0.77-1.2812 2.31-1.8906 4.55-1.8906h2.54c1 0 2.11 0.1094 3.39 0.4101v-16.691c-0.86-0.289-1.96-0.5781-3.28-0.9375-1.36-0.3515-2.71-0.6797-4.13-0.9687-1.41-0.2617-2.82-0.4727-4.21-0.6133-1.41-0.1602-2.62-0.2188-3.6-0.2188-4.95 0-9.03 0.9688-12.27 2.961-3.25 1.9687-5.36 5.418-6.34 10.34-4.79-4.6289-10.67-8.0195-17.64-10.141s-13.68-3.1602-20.17-3.1602c-4.93 0-9.66 0.6485-14.15 2.0118-4.51 1.3203-8.49 3.3086-11.93 5.8984-3.47 2.6211-6.21 5.9219-8.24 9.9297-2.05 4.0391-3.07 8.6914-3.07 14.059 0 6.7422 1.22 12.25 3.7 16.48 2.46 4.2031 5.7 7.5312 9.71 9.9218 4.01 2.3904 8.52 4.1294 13.53 5.1874 5 1.031 10.04 1.863 15.1 2.422 4.36 0.852 8.52 1.449 12.45 1.801 3.96 0.347 7.43 0.937 10.46 1.789 3.03 0.859 5.43 2.16 7.18 3.922 1.77 1.75 2.65 4.398 2.65 7.91 0 3.078-0.72 5.617-2.22 7.598-1.47 1.968-3.31 3.5-5.5 4.539-2.17 1.062-4.6 1.769-7.27 2.113-2.68 0.359-5.22 0.539-7.61 0.539-6.76 0-12.34-1.422-16.7-4.223-4.36-2.816-6.82-7.179-7.39-13.109h-24.08c0.43 7.043 2.11 12.91 5.07 17.531 2.96 4.66 6.71 8.41 11.3 11.199 4.58 2.832 9.76 4.813 15.53 5.93 5.78 1.121 11.69 1.68 17.75 1.68 5.35 0 10.63-0.559 15.84-1.68 5.22-1.117 9.9-2.949 14.06-5.508 4.13-2.531 7.51-5.812 10.05-9.82 2.54-4 3.8-8.902 3.8-14.68zm-24.11 30.441c-3.65-2.4179-8.16-3.8476-13.51-4.3281-5.36-0.5-10.72-1.2305-16.07-2.2305-2.53-0.4218-4.99-1-7.38-1.8007-2.4-0.7696-4.51-1.8399-6.35-3.1602-1.83-1.3594-3.28-3.1016-4.32-5.2695-1.06-2.1914-1.59-4.8399-1.59-7.9297 0-2.6914 0.77-4.9219 2.33-6.7813 1.55-1.8281 3.4-3.2695 5.6-4.3007 2.18-1.0704 4.57-1.7969 7.17-2.25 2.61-0.3985 4.97-0.6094 7.08-0.6094 2.68 0 5.57 0.3515 8.66 1.0625 3.1 0.6679 6.03 1.8867 8.77 3.5664 2.74 1.7109 5.04 3.8515 6.87 6.4531 1.83 2.5899 2.74 5.7969 2.74 9.5977v17.98"/><path d="m3219.4 152.52h22.8v-16.071l0.45-0.398c3.65 6.039 8.46 10.777 14.36 14.269 5.91 3.43 12.46 5.141 19.65 5.141 11.97 0 21.4-3.09 28.29-9.27 6.9-6.23 10.38-15.511 10.38-27.89v-75.012h-24.11v68.68c-0.26 8.57-2.09 14.793-5.48 18.691-3.39 3.852-8.66 5.789-15.85 5.789-4.07 0-7.72-0.73-10.97-2.199-3.24-1.48-5.98-3.539-8.26-6.129-2.23-2.621-4-5.66-5.27-9.199-1.26-3.512-1.91-7.25-1.91-11.203v-64.43h-24.08v109.23"/><path d="m3356.8 78.359c0.71-7.0391 3.39-11.961 8.04-14.789 4.64-2.832 10.2-4.2109 16.69-4.2109 2.23 0 4.83 0.1797 7.72 0.5312 2.86 0.3477 5.6 1 8.13 2 2.54 0.9688 4.61 2.418 6.22 4.3282 1.62 1.8906 2.36 4.3906 2.21 7.4921-0.14 3.0977-1.27 5.6289-3.36 7.6094-2.11 1.9688-4.83 3.5586-8.13 4.7695-3.33 1.1719-7.11 2.211-11.32 3.0391-4.22 0.8516-8.51 1.7695-12.88 2.7695-4.51 0.9727-8.84 2.1719-13 3.5625-4.15 1.418-7.9 3.3282-11.2 5.7191-3.3 2.39-5.95 5.449-7.93 9.191-1.97 3.719-2.94 8.348-2.94 13.82 0 5.93 1.45 10.879 4.33 14.918 2.89 4.012 6.54 7.25 10.99 9.7 4.43 2.48 9.34 4.211 14.77 5.191 5.42 0.969 10.61 1.469 15.53 1.469 5.63 0 11.03-0.59 16.19-1.797 5.13-1.184 9.78-3.121 13.94-5.801 4.14-2.691 7.6-6.16 10.34-10.473 2.74-4.269 4.48-9.457 5.19-15.527h-25.15c-1.15 5.77-3.77 9.668-7.93 11.641-4.14 1.976-8.92 2.949-14.26 2.949-1.68 0-3.72-0.152-6.01-0.422-2.33-0.289-4.51-0.82-6.57-1.59-2.03-0.769-3.74-1.91-5.16-3.39-1.41-1.469-2.12-3.418-2.12-5.797 0-2.953 1.03-5.34 3.06-7.192 2.04-1.832 4.72-3.34 8.02-4.539 3.34-1.179 7.1-2.222 11.32-3.062s8.58-1.75 13.08-2.75c4.37-0.969 8.67-2.18 12.91-3.59 4.22-1.379 7.99-3.309 11.29-5.6876 3.3-2.3906 5.98-5.4297 8.01-9.082 2.07-3.6797 3.07-8.1875 3.07-13.531 0-6.4765-1.47-11.969-4.42-16.469-2.95-4.5078-6.81-8.1602-11.52-11-4.72-2.8281-9.96-4.8594-15.74-6.1289-5.77-1.2617-11.46-1.8789-17.1-1.8789-6.92 0-13.29 0.7578-19.12 2.2968-5.84 1.5625-10.91 3.9102-15.22 7.1016-4.3 3.1602-7.69 7.1016-10.13 11.82-2.47 4.711-3.78 10.32-3.92 16.789h24.08"/><path d="m3446 152.52h22.81v-15.211h0.62c1.85 2.652 3.83 5.132 5.92 7.402 2.13 2.238 4.48 4.16 7.07 5.68 2.62 1.57 5.61 2.781 9 3.718 3.39 0.922 7.24 1.352 11.6 1.352 6.64 0 12.8-1.461 18.49-4.422 5.71-2.969 9.75-7.539 12.17-13.73 4.06 5.632 8.78 10.05 14.14 13.3 5.35 3.243 12.03 4.852 20.07 4.852 11.56 0 20.52-2.789 26.95-8.449 6.39-5.633 9.6-15.063 9.6-28.293v-75.43h-24.08v63.813c0 4.359-0.14 8.339-0.43 11.937-0.27 3.59-1.1 6.691-2.42 9.281-1.36 2.602-3.36 4.629-6.01 6.02-2.69 1.41-6.35 2.109-11 2.109-8.17 0-14.08-2.519-17.75-7.59-3.68-5.07-5.5-12.257-5.5-21.55v-64.02h-24.08v70.152c0 7.61-1.36 13.321-4.13 17.219-2.74 3.852-7.78 5.789-15.09 5.789-3.1 0-6.1-0.609-8.99-1.879-2.89-1.261-5.42-3.129-7.61-5.511-2.17-2.387-3.94-5.34-5.27-8.879-1.32-3.5-2-7.532-2-12.008v-64.883h-24.08v109.23"/><path d="m3628.1 194.13h24.08v-22.801h-24.08zm0-41.609h24.08v-109.23h-24.08v109.23"/><path d="m3694.7 78.359c0.71-7.0391 3.36-11.961 8.01-14.789 4.67-2.832 10.23-4.2109 16.69-4.2109 2.27 0 4.83 0.1797 7.72 0.5312 2.89 0.3477 5.6 1 8.14 2 2.53 0.9688 4.59 2.418 6.21 4.3282 1.62 1.8906 2.36 4.3906 2.25 7.4921-0.15 3.0977-1.28 5.6289-3.39 7.6094-2.13 1.9688-4.84 3.5586-8.13 4.7695-3.31 1.1719-7.09 2.211-11.3 3.0391-4.24 0.8516-8.55 1.7695-12.91 2.7695-4.51 0.9727-8.84 2.1719-12.97 3.5625-4.15 1.418-7.9 3.3282-11.2 5.7191-3.32 2.39-5.95 5.449-7.92 9.191-1.98 3.719-2.98 8.348-2.98 13.82 0 5.93 1.44 10.879 4.33 14.918 2.89 4.012 6.57 7.25 11 9.7 4.45 2.48 9.36 4.211 14.79 5.191 5.42 0.969 10.58 1.469 15.54 1.469 5.62 0 11.01-0.59 16.14-1.797 5.13-1.184 9.79-3.121 13.94-5.801 4.16-2.691 7.61-6.16 10.35-10.473 2.77-4.269 4.48-9.457 5.19-15.527h-25.14c-1.12 5.77-3.78 9.668-7.93 11.641-4.16 1.976-8.9 2.949-14.26 2.949-1.68 0-3.69-0.152-6.02-0.422-2.33-0.289-4.51-0.82-6.54-1.59-2.03-0.769-3.77-1.91-5.19-3.39-1.42-1.469-2.09-3.418-2.09-5.797 0-2.953 1-5.34 3.06-7.192 2.04-1.832 4.72-3.34 8.02-4.539 3.3-1.179 7.08-2.222 11.29-3.062 4.25-0.84 8.61-1.75 13.12-2.75 4.36-0.969 8.66-2.18 12.88-3.59 4.21-1.379 7.98-3.309 11.31-5.6876 3.3-2.3906 5.99-5.4297 8.02-9.082 2.04-3.6797 3.07-8.1875 3.07-13.531 0-6.4765-1.48-11.969-4.45-16.469-2.96-4.5078-6.78-8.1602-11.5-11-4.72-2.8281-9.96-4.8594-15.74-6.1289-5.78-1.2617-11.49-1.8789-17.13-1.8789-6.89 0-13.25 0.7578-19.12 2.2968-5.84 1.5625-10.91 3.9102-15.21 7.1016-4.31 3.1602-7.67 7.1016-10.13 11.82-2.45 4.711-3.78 10.32-3.9 16.789h24.08"/><path d="m3803.6 78.359c0.71-7.0391 3.39-11.961 8.05-14.789 4.63-2.832 10.2-4.2109 16.68-4.2109 2.24 0 4.83 0.1797 7.73 0.5312 2.85 0.3477 5.59 1 8.13 2 2.53 0.9688 4.6 2.418 6.22 4.3282 1.62 1.8906 2.35 4.3906 2.21 7.4921-0.15 3.0977-1.27 5.6289-3.36 7.6094-2.13 1.9688-4.84 3.5586-8.13 4.7695-3.33 1.1719-7.11 2.211-11.33 3.0391-4.2 0.8516-8.51 1.7695-12.87 2.7695-4.52 0.9727-8.85 2.1719-13.01 3.5625-4.14 1.418-7.89 3.3282-11.2 5.7191-3.29 2.39-5.95 5.449-7.92 9.191-1.97 3.719-2.94 8.348-2.94 13.82 0 5.93 1.43 10.879 4.33 14.918 2.88 4.012 6.53 7.25 10.99 9.7 4.42 2.48 9.34 4.211 14.77 5.191 5.42 0.969 10.61 1.469 15.53 1.469 5.62 0 11.02-0.59 16.18-1.797 5.13-1.184 9.78-3.121 13.94-5.801 4.15-2.691 7.61-6.16 10.35-10.473 2.74-4.269 4.48-9.457 5.18-15.527h-25.13c-1.16 5.77-3.78 9.668-7.94 11.641-4.15 1.976-8.93 2.949-14.26 2.949-1.68 0-3.72-0.152-6.01-0.422-2.33-0.289-4.51-0.82-6.58-1.59-2.03-0.769-3.74-1.91-5.16-3.39-1.41-1.469-2.11-3.418-2.11-5.797 0-2.953 1.02-5.34 3.06-7.192 2.03-1.832 4.72-3.34 8.02-4.539 3.32-1.179 7.1-2.222 11.31-3.062 4.22-0.84 8.58-1.75 13.09-2.75 4.36-0.969 8.66-2.18 12.91-3.59 4.21-1.379 7.98-3.309 11.29-5.6876 3.3-2.3906 5.98-5.4297 8.01-9.082 2.07-3.6797 3.07-8.1875 3.07-13.531 0-6.4765-1.48-11.969-4.42-16.469-2.95-4.5078-6.81-8.1602-11.53-11-4.71-2.8281-9.96-4.8594-15.74-6.1289-5.78-1.2617-11.46-1.8789-17.09-1.8789-6.93 0-13.29 0.7578-19.13 2.2968-5.84 1.5625-10.91 3.9102-15.21 7.1016-4.3 3.1602-7.69 7.1016-10.13 11.82-2.48 4.711-3.78 10.32-3.93 16.789h24.08"/><path d="m3894.1 194.13h24.08v-22.801h-24.08zm0-41.609h24.08v-109.23h-24.08v109.23"/><path d="m3990.1 40.352c-8.72 0-16.5 1.4375-23.34 4.3281-6.84 2.8516-12.62 6.8711-17.33 11.941-4.72 5.0703-8.31 11.109-10.76 18.148-2.47 7.0391-3.71 14.789-3.71 23.262 0 8.2777 1.24 15.969 3.71 23.02 2.45 7.039 6.04 13.078 10.76 18.148 4.71 5.071 10.49 9.039 17.33 11.93s14.62 4.34 23.34 4.34 16.5-1.449 23.34-4.34 12.62-6.859 17.33-11.93c4.72-5.07 8.32-11.109 10.79-18.148 2.45-7.051 3.69-14.742 3.69-23.02 0-8.4727-1.24-16.223-3.69-23.262-2.47-7.039-6.07-13.078-10.79-18.148-4.71-5.0703-10.49-9.0898-17.33-11.941-6.84-2.8906-14.62-4.3281-23.34-4.3281m0 19.008c5.36 0 10 1.1094 13.94 3.3594 3.95 2.2695 7.19 5.2109 9.72 8.8906 2.54 3.6719 4.39 7.7617 5.61 12.359 1.17 4.5703 1.8 9.25 1.8 14.062 0 4.6167-0.63 9.2777-1.8 13.93-1.22 4.641-3.07 8.769-5.61 12.359-2.53 3.59-5.77 6.508-9.72 8.75-3.94 2.27-8.58 3.391-13.94 3.391s-9.99-1.121-13.94-3.391c-3.95-2.242-7.2-5.16-9.72-8.75-2.54-3.59-4.4-7.718-5.61-12.359-1.17-4.652-1.79-9.313-1.79-13.93 0-4.8125 0.62-9.4922 1.79-14.062 1.21-4.5977 3.07-8.6875 5.61-12.359 2.52-3.6797 5.77-6.6211 9.72-8.8906 3.95-2.25 8.58-3.3594 13.94-3.3594"/><path d="m4059.1 152.52h22.82v-16.071l0.43-0.398c3.65 6.039 8.46 10.777 14.36 14.269 5.92 3.43 12.46 5.141 19.65 5.141 11.97 0 21.41-3.09 28.31-9.27 6.89-6.23 10.36-15.511 10.36-27.89v-75.012h-24.1v68.68c-0.27 8.57-2.1 14.793-5.49 18.691-3.39 3.852-8.66 5.789-15.85 5.789-4.07 0-7.72-0.73-10.97-2.199-3.24-1.48-5.98-3.539-8.25-6.129-2.24-2.621-4.01-5.66-5.28-9.199-1.26-3.512-1.91-7.25-1.91-11.203v-64.43h-24.08v109.23"/><path d="m4335.6 146.19c-1.12 4.36-2.68 8.368-4.65 12.02-1.99 3.68-4.52 6.84-7.61 9.519-3.1 2.68-6.72 4.739-10.88 6.219-4.16 1.5-8.98 2.242-14.47 2.242-8.02 0-14.97-1.621-20.81-4.871-5.84-3.242-10.61-7.558-14.27-12.992-3.65-5.418-6.36-11.59-8.13-18.476-1.77-6.903-2.62-13.954-2.62-21.133 0-7.188 0.85-14.239 2.62-21.129 1.77-6.8984 4.48-13.07 8.13-18.488 3.66-5.4219 8.43-9.75 14.27-12.992 5.84-3.25 12.79-4.8711 20.81-4.8711 5.92 0 11.14 1.0312 15.65 3.0703 4.48 2.0312 8.37 4.8711 11.61 8.4609 3.25 3.5899 5.77 7.7813 7.61 12.551 1.83 4.8086 3.03 9.9414 3.59 15.442h25.76c-0.56-9.012-2.5-17.274-5.8-24.731-3.31-7.4493-7.79-13.91-13.42-19.332-5.62-5.4179-12.26-9.5976-19.85-12.551-7.61-2.9765-15.98-4.457-25.15-4.457-11.26 0-21.37 2.0977-30.33 6.2578-8.93 4.1211-16.5 9.8125-22.69 17-6.2 7.1719-10.97 15.562-14.27 25.152-3.3 9.5703-4.95 19.769-4.95 30.617 0 10.703 1.65 20.832 4.95 30.422 3.3 9.57 8.07 17.937 14.27 25.14 6.19 7.188 13.76 12.879 22.69 17.117 8.96 4.211 19.07 6.34 30.33 6.34 8.46 0 16.41-1.187 23.87-3.476 7.46-2.332 14.06-5.723 19.75-10.172 5.72-4.418 10.32-9.809 13.85-16.16 3.51-6.328 5.69-13.59 6.55-21.739h-26.41"/><path d="m4428.9 40.352c-8.75 0-16.53 1.4375-23.34 4.3281-6.84 2.8516-12.62 6.8711-17.33 11.941-4.72 5.0703-8.32 11.109-10.79 18.148-2.45 7.0391-3.68 14.789-3.68 23.262 0 8.2777 1.23 15.969 3.68 23.02 2.47 7.039 6.07 13.078 10.79 18.148 4.71 5.071 10.49 9.039 17.33 11.93 6.81 2.891 14.59 4.34 23.34 4.34 8.72 0 16.5-1.449 23.34-4.34 6.81-2.891 12.59-6.859 17.3-11.93 4.75-5.07 8.32-11.109 10.79-18.148 2.47-7.051 3.69-14.742 3.69-23.02 0-8.4727-1.22-16.223-3.69-23.262-2.47-7.039-6.04-13.078-10.79-18.148-4.71-5.0703-10.49-9.0898-17.3-11.941-6.84-2.8906-14.62-4.3281-23.34-4.3281m0 19.008c5.33 0 10 1.1094 13.94 3.3594 3.92 2.2695 7.16 5.2109 9.69 8.8906 2.54 3.6719 4.42 7.7617 5.61 12.359 1.2 4.5703 1.8 9.25 1.8 14.062 0 4.6167-0.6 9.2777-1.8 13.93-1.19 4.641-3.07 8.769-5.61 12.359-2.53 3.59-5.77 6.508-9.69 8.75-3.94 2.27-8.61 3.391-13.94 3.391-5.36 0-10.02-1.121-13.94-3.391-3.95-2.242-7.2-5.16-9.73-8.75-2.54-3.59-4.42-7.718-5.6-12.359-1.21-4.652-1.79-9.313-1.79-13.93 0-4.8125 0.58-9.4922 1.79-14.062 1.18-4.5977 3.06-8.6875 5.6-12.359 2.53-3.6797 5.78-6.6211 9.73-8.8906 3.92-2.25 8.58-3.3594 13.94-3.3594"/><path d="m4497.9 152.52h22.8v-15.211h0.66c1.82 2.652 3.8 5.132 5.92 7.402 2.1 2.238 4.45 4.16 7.07 5.68 2.6 1.57 5.61 2.781 8.97 3.718 3.39 0.922 7.27 1.352 11.64 1.352 6.6 0 12.76-1.461 18.48-4.422 5.68-2.969 9.75-7.539 12.14-13.73 4.1 5.632 8.81 10.05 14.15 13.3 5.36 3.243 12.05 4.852 20.06 4.852 11.56 0 20.55-2.789 26.95-8.449 6.42-5.633 9.61-15.063 9.61-28.293v-75.43h-24.08v63.813c0 4.359-0.15 8.339-0.41 11.937-0.3 3.59-1.1 6.691-2.45 9.281-1.33 2.602-3.33 4.629-6.01 6.02-2.68 1.41-6.35 2.109-11 2.109-8.17 0-14.08-2.519-17.75-7.59-3.65-5.07-5.47-12.257-5.47-21.55v-64.02h-24.08v70.152c0 7.61-1.39 13.321-4.13 17.219-2.74 3.852-7.78 5.789-15.12 5.789-3.1 0-6.07-0.609-8.96-1.879-2.89-1.261-5.42-3.129-7.61-5.511-2.17-2.387-3.94-5.34-5.27-8.879-1.35-3.5-2.03-7.532-2.03-12.008v-64.883h-24.08v109.23"/><path d="m4680.3 152.52h22.81v-14.79h0.41c3.39 6.329 8.1 10.872 14.18 13.622 6.04 2.757 12.58 4.109 19.63 4.109 8.6 0 16.09-1.492 22.51-4.531 6.4-3.039 11.71-7.192 15.95-12.461 4.22-5.278 7.39-11.449 9.49-18.489 2.12-7.039 3.18-14.589 3.18-22.601 0-7.3398-0.94-14.449-2.86-21.34-1.88-6.8985-4.77-13-8.66-18.277-3.86-5.2734-8.75-9.5234-14.68-12.672-5.92-3.1796-12.88-4.7382-20.92-4.7382-3.51 0-7.05 0.289-10.56 0.9375-3.54 0.6211-6.9 1.6523-10.13 3.0625-3.25 1.4179-6.26 3.1875-9 5.3984-2.74 2.1797-5.04 4.7383-6.86 7.6914h-0.41v-54.5h-24.08zm84.08-54.731c0 4.9489-0.64 9.7309-1.91 14.383-1.27 4.629-3.15 8.75-5.69 12.359-2.53 3.59-5.72 6.469-9.52 8.66-3.8 2.18-8.17 3.258-13.08 3.258-10.14 0-17.81-3.5-22.93-10.539-5.16-7.051-7.73-16.422-7.73-28.121 0-5.4805 0.68-10.578 2-15.289 1.36-4.7305 3.37-8.7891 6.05-12.148 2.65-3.3907 5.86-6.0703 9.6-8.0508 3.72-1.9727 8.06-2.9414 13.01-2.9414 5.48 0 10.13 1.1094 13.94 3.3594 3.8 2.2617 6.92 5.1914 9.4 8.7812 2.44 3.5898 4.21 7.6602 5.28 12.262 1.05 4.5586 1.58 9.25 1.58 14.027"/><path d="m4824.7 91.66c0-4.2188 0.59-8.3204 1.79-12.23 1.18-3.9492 2.99-7.3984 5.37-10.379 2.41-2.9414 5.43-5.3008 9.11-7.0703 3.65-1.7422 8.01-2.6211 13.08-2.6211 7.04 0 12.71 1.5 17.01 4.539 4.3 3.0313 7.51 7.5704 9.61 13.613h22.8c-1.26-5.8906-3.43-11.203-6.53-15.832-3.1-4.6484-6.84-8.5703-11.2-11.719-4.36-3.1914-9.26-5.582-14.68-7.1992-5.42-1.6211-11.08-2.4101-17.01-2.4101-8.58 0-16.18 1.3789-22.81 4.207-6.63 2.832-12.24 6.75-16.8 11.82-4.57 5.0703-8.01 11.141-10.35 18.18-2.33 7.0508-3.47 14.793-3.47 23.23 0 7.7499 1.2 15.121 3.68 22.082 2.48 6.981 5.98 13.109 10.56 18.379 4.59 5.289 10.1 9.461 16.59 12.59 6.48 3.101 13.79 4.629 21.98 4.629 8.58 0 16.3-1.797 23.14-5.399 6.81-3.558 12.5-8.34 17.01-14.242 4.47-5.906 7.78-12.719 9.81-20.379 2.04-7.699 2.56-15.59 1.59-23.789zm56.17 15.86c-0.26 3.8-1.09 7.449-2.42 10.992-1.32 3.508-3.15 6.566-5.48 9.187-2.33 2.602-5.15 4.723-8.46 6.34-3.3 1.621-7.01 2.422-11.08 2.422-4.25 0-8.07-0.742-11.52-2.211-3.45-1.48-6.42-3.531-8.87-6.129-2.48-2.633-4.45-5.66-5.92-9.199-1.48-3.5-2.31-7.313-2.42-11.402h56.17"/><path d="m4912.1 152.52h18.16v32.75h24.08v-32.75h21.76v-17.95h-21.76v-58.32c0-2.5391 0.11-4.7187 0.32-6.5508 0.21-1.8203 0.71-3.3906 1.48-4.6601 0.76-1.2578 1.95-2.211 3.47-2.8282 1.57-0.6523 3.68-0.9726 6.35-0.9726 1.71 0 3.38 0.0312 5.06 0.1211 1.72 0.0625 3.39 0.3203 5.08 0.7422v-18.613c-2.66-0.2578-5.29-0.5469-7.82-0.8477-2.54-0.2617-5.13-0.4101-7.81-0.4101-6.34 0-11.44 0.6211-15.33 1.8008-3.86 1.1992-6.9 2.9492-9.07 5.2695-2.19 2.3281-3.66 5.25-4.42 8.7773-0.8 3.5117-1.25 7.5235-1.39 12.031v64.461h-18.16v17.95"/><path d="m5012.5 91.66c0-4.2188 0.62-8.3204 1.8-12.23 1.2-3.9492 3.01-7.3984 5.39-10.379 2.39-2.9414 5.43-5.3008 9.08-7.0703 3.66-1.7422 8.05-2.6211 13.12-2.6211 7.04 0 12.7 1.5 17 4.539 4.28 3.0313 7.48 7.5704 9.61 13.613h22.81c-1.26-5.8906-3.44-11.203-6.54-15.832-3.1-4.6484-6.84-8.5703-11.2-11.719-4.36-3.1914-9.26-5.582-14.68-7.1992-5.42-1.6211-11.11-2.4101-17-2.4101-8.61 0-16.22 1.3789-22.85 4.207-6.6 2.832-12.2 6.75-16.77 11.82-4.59 5.0703-8.04 11.141-10.37 18.18-2.3 7.0508-3.48 14.793-3.48 23.23 0 7.7499 1.24 15.121 3.71 22.082 2.45 6.981 5.99 13.109 10.56 18.379 4.57 5.289 10.1 9.461 16.59 12.59 6.45 3.101 13.8 4.629 21.96 4.629 8.6 0 16.29-1.797 23.13-5.399 6.84-3.558 12.5-8.34 17.01-14.242 4.51-5.906 7.78-12.719 9.81-20.379 2.07-7.699 2.57-15.59 1.6-23.789zm56.21 15.86c-0.3 3.8-1.09 7.449-2.42 10.992-1.35 3.508-3.18 6.566-5.51 9.187-2.33 2.602-5.13 4.723-8.46 6.34-3.3 1.621-6.99 2.422-11.08 2.422-4.22 0-8.05-0.742-11.52-2.211-3.45-1.48-6.4-3.531-8.87-6.129-2.45-2.633-4.42-5.66-5.9-9.199-1.48-3.5-2.3-7.313-2.45-11.402h56.21"/><path d="m5108 152.52h22.82v-16.071l0.44-0.398c3.65 6.039 8.46 10.777 14.35 14.269 5.93 3.43 12.47 5.141 19.66 5.141 11.96 0 21.4-3.09 28.3-9.27 6.9-6.23 10.36-15.511 10.36-27.89v-75.012h-24.1v68.68c-0.27 8.57-2.09 14.793-5.48 18.691-3.39 3.852-8.67 5.789-15.86 5.789-4.07 0-7.72-0.73-10.96-2.199-3.25-1.48-5.99-3.539-8.25-6.129-2.24-2.621-4.01-5.66-5.28-9.199-1.27-3.512-1.92-7.25-1.92-11.203v-64.43h-24.08v109.23"/><path d="m5298.9 115.97c-0.97 6.75-3.68 11.851-8.13 15.301-4.43 3.48-10.02 5.191-16.77 5.191-3.12 0-6.42-0.531-9.93-1.59-3.55-1.062-6.78-3.012-9.73-5.902-2.95-2.879-5.42-6.918-7.4-12.047-1.98-5.133-2.95-11.883-2.95-20.16 0-4.5234 0.54-9.0234 1.6-13.531 1.02-4.5117 2.73-8.5196 5.07-12.059 2.3-3.5 5.3-6.3633 8.96-8.543 3.65-2.1797 8.1-3.2695 13.32-3.2695 7.04 0 12.85 2.1797 17.41 6.539 4.57 4.3633 7.44 10.492 8.55 18.391h24.11c-2.27-14.23-7.66-25.109-16.18-32.66s-19.81-11.289-33.89-11.289c-8.61 0-16.18 1.4493-22.72 4.3399-6.55 2.8516-12.1 6.8086-16.57 11.82-4.51 5.0117-7.93 10.961-10.26 17.859-2.32 6.9023-3.48 14.352-3.48 22.402 0 8.1603 1.13 15.816 3.36 23.008 2.28 7.199 5.64 13.421 10.14 18.691 4.51 5.277 10.12 9.43 16.81 12.461 6.68 3.039 14.55 4.547 23.54 4.547 6.37 0 12.38-0.797 18.07-2.418 5.72-1.621 10.79-4.071 15.21-7.301 4.45-3.25 8.07-7.32 10.9-12.238 2.8-4.961 4.48-10.793 5.07-17.543h-24.11"/><path d="m5359.6 91.66c0-4.2188 0.59-8.3204 1.79-12.23 1.19-3.9492 2.98-7.3984 5.36-10.379 2.42-2.9414 5.43-5.3008 9.12-7.0703 3.65-1.7422 8.01-2.6211 13.08-2.6211 7.04 0 12.7 1.5 17.01 4.539 4.3 3.0313 7.52 7.5704 9.6 13.613h22.82c-1.27-5.8906-3.45-11.203-6.54-15.832-3.09-4.6484-6.84-8.5703-11.2-11.719-4.37-3.1914-9.26-5.582-14.68-7.1992-5.42-1.6211-11.08-2.4101-17.01-2.4101-8.58 0-16.18 1.3789-22.81 4.207-6.63 2.832-12.24 6.75-16.8 11.82-4.57 5.0703-8.02 11.141-10.35 18.18-2.32 7.0508-3.47 14.793-3.47 23.23 0 7.7499 1.21 15.121 3.68 22.082 2.47 6.981 5.98 13.109 10.56 18.379 4.59 5.289 10.1 9.461 16.59 12.59 6.48 3.101 13.79 4.629 21.99 4.629 8.57 0 16.29-1.797 23.13-5.399 6.81-3.558 12.5-8.34 17-14.242 4.48-5.906 7.79-12.719 9.83-20.379 2.02-7.699 2.55-15.59 1.58-23.789zm56.17 15.86c-0.26 3.8-1.09 7.449-2.41 10.992-1.33 3.508-3.16 6.566-5.49 9.187-2.33 2.602-5.16 4.723-8.46 6.34-3.29 1.621-7.01 2.422-11.07 2.422-4.25 0-8.08-0.742-11.53-2.211-3.45-1.48-6.42-3.531-8.87-6.129-2.48-2.633-4.45-5.66-5.93-9.199-1.47-3.5-2.3-7.313-2.41-11.402h56.17"/><path d="m5511.6 194.14h26.41v-60.02h68.68v60.02h26.4v-150.85h-26.4v68.031h-68.68v-68.031h-26.41v150.85"/><path d="m5751 43.289h-23.67v15.223h-0.41c-2.95-5.4922-7.37-9.9101-13.2-13.223-5.84-3.3008-11.79-4.9493-17.86-4.9493-14.36 0-24.76 3.5508-31.15 10.68-6.43 7.1016-9.61 17.832-9.61 32.219v69.282h24.07v-66.961c0-9.5781 1.84-16.359 5.49-20.297 3.68-3.9336 8.81-5.9023 15.44-5.9023 5.07 0 9.29 0.7695 12.68 2.3203 3.35 1.5391 6.13 3.6211 8.22 6.2305 2.12 2.5898 3.62 5.7382 4.53 9.3906 0.92 3.6601 1.39 7.6094 1.39 11.82v63.399h24.08v-109.23"/><path d="m5770.6 194.14h24.08v-55.77h0.45c1.67 2.649 3.71 5.07 6.13 7.168 2.38 2.121 5 3.91 7.9 5.391 2.88 1.48 5.92 2.59 9.1 3.39 3.15 0.77 6.31 1.149 9.37 1.149 8.61 0 16.1-1.5 22.53-4.539 6.42-3.039 11.72-7.192 15.97-12.469 4.18-5.281 7.36-11.441 9.49-18.481 2.11-7.039 3.18-14.589 3.18-22.601 0-7.3476-1-14.449-2.89-21.34-1.89-6.8985-4.77-13-8.67-18.27-3.88-5.2812-8.78-9.5195-14.67-12.68-5.9-3.1914-12.88-4.7382-20.93-4.7382-3.65 0-7.34 0.2265-11.05 0.7304-3.74 0.4961-7.31 1.4493-10.67 2.8594-3.39 1.3867-6.46 3.207-9.2 5.4805-2.74 2.25-5.04 5.2187-6.86 8.8672h-0.45v-15h-22.81zm84.09-96.352c0 4.9489-0.65 9.7309-1.88 14.383-1.3 4.629-3.19 8.75-5.72 12.359-2.54 3.59-5.72 6.481-9.49 8.649-3.84 2.191-8.2 3.281-13.13 3.281-10.13 0-17.76-3.512-22.92-10.551-5.13-7.051-7.69-16.422-7.69-28.121 0-5.4805 0.65-10.578 2-15.289 1.33-4.7187 3.33-8.7812 6.01-12.148 2.68-3.3907 5.9-6.0821 9.62-8.0508 3.74-1.9727 8.07-2.9414 12.98-2.9414 5.52 0 10.15 1.1211 13.95 3.3515 3.8 2.2696 6.96 5.1993 9.41 8.7891 2.44 3.6016 4.21 7.6719 5.27 12.262 1.06 4.5664 1.59 9.2578 1.59 14.027"/></g><path d="m0 194.9h1849.1v-154.6h-1849.1zm0 226.29v154.59h455.62l-27.992 22.149c-13.75 10.859-27.375 22.05-40.723 33.879l-9.449 8.48c-60.109 54.602-118.22 120.84-177.64 202.5-33.989 46.793-64.602 93.149-91.61 134.07-17.695 26.777-35.746 54.117-52.984 78.707-23.676 33.83-41.332 56.12-55.219 69.64v193.66c35.93-2.06 61.547-13.69 91.02-40.48 44.578-40.54 90.626-110.23 139.38-184.03l35.067-52.82 22.824-33.49 6.766-9.706c6.668-9.606 13.597-19.395 20.691-29.156l20.078-27.192c9.172-12.137 18.567-24.219 28.227-36.191l22.277-26.817 23.219-26.34 16.699-17.878 7.692-7.961c12.156-12.45 24.796-24.653 37.816-36.493 66.152-60.078 137.83-105.75 213.04-135.76 4.117-1.641 8.234-3.242 12.398-4.77 2.911-1.101 23.387-8.222 23.387-8.222 1.285-0.469 10.871-3.547 14.164-4.508 3.895-1.18 22.285-6.332 22.285-6.332 5.895-1.528 17.598-4.379 19.223-4.719 2.645-0.648 5.844-1.359 9.063-2.039 5.226-1.121 9.246-1.93 13.23-2.691 4.531-0.899 8.434-1.579 12.328-2.25 7.453-1.29 14.969-2.469 22.555-3.489l17.019-2.101 15.508-1.539 12.883-1 23.387-1.18s17.449-0.383 22.668-0.383c5.289 0 22.535 0.363 22.535 0.363s19.269 0.911 23.762 1.2l16.363 1.32 20.639 2.238 7.78 0.992c7.72 1.059 15.38 2.258 22.96 3.598 3.89 0.652 7.83 1.332 11.73 2.102 4.65 0.89 8.65 1.699 12.66 2.558 4.43 0.942 15.05 3.422 15.05 3.422 4.16 0.957 8.56 2.07 12.92 3.199l13.26 3.641 10.36 3.039c3.72 1.109 14.79 4.691 14.79 4.691l12.67 4.321c4.32 1.519 7.39 2.679 10.42 3.816 4.03 1.492 8.18 3.094 12.28 4.742 75.2 30 146.86 75.668 213 135.75 9.54 8.668 18.87 17.539 27.97 26.586l8.84 8.911c5.14 5.238 19.34 20.261 19.34 20.261l11.22 12.254c7.41 8.274 14.58 16.527 21.64 24.836l5.52 6.609c11.87 14.215 23.35 28.594 34.51 43.122l12.67 16.734c5.75 7.73 11.35 15.453 16.9 23.144 8.74 12.082 17.24 24.161 25.54 36.217l25.89 38.05 30.85 46.58c48.91 74.07 95.09 144.02 139.9 184.74 29.25 26.64 54.68 38.27 90.21 40.45v-194.4c-13.67-13.47-31.11-35.55-54.45-68.82-17.42-24.92-35.76-52.63-53-78.777-26.99-40.915-57.58-87.29-91.61-134.01-59.41-81.668-117.5-147.9-177.6-202.5-3.16-2.91-6.27-5.68-9.42-8.43-13.4-11.902-27.05-23.082-40.79-33.949l-27.95-22.141h454.82v-154.58zm924.91 425.93c-9.383 0-18.68 0.231-27.859 0.754-111.12 5.98-208.44 48.246-297.56 129.23-25.387 23.088-49.949 49.018-75.086 79.278-47.523 57.22-89.164 120.32-129.45 181.36-57.023 86.39-110.88 167.99-176.2 227.42-65.758 59.74-135.55 89.05-218.76 91.66v188.21c117.57-2.77 220.12-45.33 313.1-129.87 81.125-73.73 143.83-168.69 204.47-260.52 57.344-86.84 111.13-168.29 176.27-227.51 62.773-57.02 128.29-85.96 206.17-91.06 8.137-0.55 16.445-0.81 24.902-0.81s16.766 0.26 24.934 0.81c77.856 5.1 143.39 34.04 206.16 91.06 65.21 59.28 119.06 140.85 176.08 227.21 60.79 92.07 123.5 187.06 204.66 260.82 92.76 84.34 195.03 126.88 312.33 129.8v-188.19c-82.9-2.78-152.43-32.09-217.95-91.61-65.41-59.45-119.24-141.05-176.22-227.42-40.25-61-81.87-124.07-129.49-181.36-25.11-30.25-49.66-56.19-75.04-79.278-89.12-80.981-186.44-123.25-297.55-129.21-9.257-0.543-18.515-0.774-27.91-0.774" fill="#4bbf67"/></g></g></svg>
