<?xml version="1.0" encoding="UTF-8" standalone="no"?>
<!-- Created with Inkscape (http://www.inkscape.org/) -->

<svg
   width="661"
   height="236"
   version="1.1"
   viewBox="0 0 661 236"
   id="svg20"
   sodipodi:docname="kul_logo.svg"
   inkscape:version="1.1.1 (3bf5ae0d25, 2021-09-20)"
   xmlns:inkscape="http://www.inkscape.org/namespaces/inkscape"
   xmlns:sodipodi="http://sodipodi.sourceforge.net/DTD/sodipodi-0.dtd"
   xmlns="http://www.w3.org/2000/svg"
   xmlns:svg="http://www.w3.org/2000/svg">
  <defs
     id="defs24" />
  <sodipodi:namedview
     id="namedview22"
     pagecolor="#ffffff"
     bordercolor="#666666"
     borderopacity="1.0"
     inkscape:pageshadow="2"
     inkscape:pageopacity="0.0"
     inkscape:pagecheckerboard="0"
     showgrid="false"
     showguides="false"
     inkscape:zoom="0.92813918"
     inkscape:cx="407.80522"
     inkscape:cy="169.15566"
     inkscape:window-width="1920"
     inkscape:window-height="1059"
     inkscape:window-x="0"
     inkscape:window-y="0"
     inkscape:window-maximized="1"
     inkscape:current-layer="svg20">
    <sodipodi:guide
       position="92.464317,337.61477"
       orientation="0,-1"
       id="guide949" />
  </sodipodi:namedview>
  <g
     id="g1659"
     transform="translate(-10.846854,-380.92059)">
    <path
       style="fill:#53b8e8"
       d="m 10.846854,498.92059 v -118 h 330.499996 330.5 v 118 118 h -330.5 -330.499996 z m 188.370336,46.33378 4.87033,-1.57445 3.82456,-3.82456 3.82456,-3.82456 1.55511,-5.23661 1.5551,-5.2366 v -24.8185 -24.8185 h -10.5 -10.5 v 23.92327 23.92328 l -2.58889,3.07672 -2.5889,3.07673 h -4.35534 -4.35534 l -2.80577,-2.41183 -2.80576,-2.41183 -0.29969,-24.58817 -0.29968,-24.58817 h -10.45032 -10.45031 v 23.78207 23.78207 l 1.3428,5.17663 c 4.19454,16.17036 23.88699,23.42718 45.02754,16.59301 z m 206.50043,1.61738 c 10.66501,-1.73053 17.1788,-6.25974 20.78324,-14.45116 l 1.76011,-4 0.39012,-26.25 0.39012,-26.25 h -10.59718 -10.59718 v 22.53212 22.53212 l -1.41534,3.38739 c -1.70629,4.08371 -4.16932,5.54837 -9.33036,5.54837 h -3.87718 l -2.13976,-1.99349 c -1.17686,-1.09642 -2.60921,-3.68392 -3.18298,-5.75 l -1.04323,-3.75651 -0.006,-21.25 -0.006,-21.25 h -10.05878 -10.05878 l 0.30878,27.25 0.30878,27.25 2.24077,4.19207 c 3.67224,6.87009 9.96783,10.78595 19.75923,12.29024 7.28646,1.11946 9.30336,1.11562 16.37077,-0.0312 z M 102.84685,535.43637 v -10.48423 l 2.85467,-3.19493 2.85467,-3.19493 3.44423,5.42916 c 1.89433,2.98603 5.67223,9.12998 8.39533,13.65322 l 4.9511,8.22407 12.75,0.0259 c 7.0125,0.0143 12.75,-0.20689 12.75,-0.49145 0,-0.28456 -6.30536,-9.95977 -14.01192,-21.50047 l -14.01192,-20.98309 9.69639,-10.74953 c 5.33302,-5.91221 10.82257,-11.987 12.19901,-13.4995 l 2.50262,-2.75 -12.93709,0.006 -12.93709,0.006 -9,11.67376 -9,11.67375 -0.28173,-11.67932 -0.28174,-11.67939 H 92.315119 81.846854 v 35 35 h 10.5 10.499996 z m 194,1.48422 v -9 h -15 -15 v -26 -26 h -10 -10 v 35 35 h 25 25 z m 64,0 v -9 h -18.5575 -18.5575 l 0.3075,-4.25 0.3075,-4.25 15.75,-0.27539 15.75,-0.2754 v -7.94921 -7.94921 l -15.75,-0.2754 -15.75,-0.27539 v -4.5 -4.5 l 17.75,-0.27307 17.75,-0.27308 v -8.47692 -8.47693 h -28 -28 v 35 35 h 28.5 28.5 z m 115.88482,5.75 c 0.57196,-1.7875 5.11399,-16.75 10.09339,-33.25 4.9794,-16.5 9.3066,-30.80308 9.616,-31.78463 l 0.56255,-1.78462 -10.82838,0.28462 -10.82838,0.28463 -5.0357,19.5 c -2.76963,10.725 -5.27515,20.15405 -5.56781,20.95344 -0.29267,0.7994 -1.99807,-4.1506 -3.78978,-11 -1.79172,-6.84939 -4.27998,-16.27844 -5.52948,-20.95344 l -2.27181,-8.5 -10.59163,-0.28321 -10.59162,-0.28321 1.82257,6.28321 c 1.00241,3.45576 5.55381,19.22071 10.11422,35.03321 l 8.29165,28.75 h 11.74714 11.74715 z m 80.11518,-5.75 v -9 h -18 -18 v -4.5 -4.5 h 16 16 v -7.97461 -7.9746 l -15.75,-0.2754 -15.75,-0.27539 v -4.5 -4.5 l 17.25,-0.27361 17.25,-0.27362 v -8.47638 -8.47639 h -27.5 -27.5 v 35 35 h 28 28 z m 26.22841,-10.07494 0.27159,-19.07495 10.3564,19.07495 10.3564,19.07494 h 10.3936 10.3936 v -35 -35 h -9.97793 -9.97794 l -0.27206,18.63102 -0.27207,18.63101 -9.68064,-18.38101 -9.68065,-18.38102 -11.06935,-0.28275 -11.06936,-0.28275 v 35.03275 35.03275 h 9.97841 9.9784 z"
       id="path1663" />
    <path
       style="fill:#003f79"
       d="m 34.846854,510.92059 v -106 h 318.499996 318.5 v 106 106 h -318.5 -318.499996 z m 162.145636,35.3791 5.77686,-1.6209 3.89689,-3.3356 3.89689,-3.3356 2.38108,-5.2935 2.38107,-5.2935 0.0108,-26 0.0108,-26 -10.75,-0.28383 -10.75,-0.28383 v 23.06595 23.06595 l -1.41534,3.38739 c -2.8761,6.88346 -12.4174,7.5872 -16.63856,1.22721 l -1.44613,-2.17884 -0.31438,-24.25 -0.31439,-24.25 h -10.43561 -10.43562 v 25.87427 25.87428 l 1.51962,4.30705 c 4.06348,11.51713 13.01732,16.74347 28.91478,16.8775 l 7.93439,0.0669 z m 218.25312,-1.78577 5.60896,-2.74421 2.88543,-4.19381 c 1.58698,-2.3066 3.38273,-5.98516 3.99056,-8.17457 l 1.10514,-3.98074 0.006,-25.25 0.005,-25.25 h -10.396 -10.396 l -0.41732,23.75 -0.41732,23.75 -1.29695,2.63973 c -1.49117,3.03503 -4.89648,4.86027 -9.0677,4.86027 h -2.89718 l -2.80577,-2.41187 -2.80576,-2.41187 -0.29888,-25.08813 -0.29888,-25.08813 H 376.7254 365.70171 l 0.32257,26.75 0.32257,26.75 2.08321,4.5 c 5.01162,10.82578 14.11308,15.1118 31.06169,14.62746 l 10.1449,-0.28992 z m -312.35811,-8.84333 0.0406,-10.25 2.81799,-3.29288 2.81799,-3.29289 8.22019,13.54289 8.22019,13.54288 h 13.4802 13.48019 l -0.7702,-1.25 c -0.42361,-0.6875 -6.78403,-10.14842 -14.13427,-21.02426 -7.35023,-10.87584 -13.21769,-20.19506 -13.03881,-20.70937 0.17889,-0.51431 5.02153,-6.2409 10.76144,-12.72574 5.7399,-6.48485 11.09715,-12.57813 11.90499,-13.54063 l 1.4688,-1.75 -13.40499,0.0449 -13.40499,0.0449 -9,11.95689 -9,11.95688 -0.28077,-12.00182 -0.28078,-12.00183 H 92.316075 81.846854 v 35.5 35.5 h 10.5 10.499996 z m 194.95935,1.25 v -9 h -15 -15 v -26.5 -26.5 h -11 -11 v 35.5 35.5 h 26 26 z m 63,0 v -9 h -18 -18 v -4.5 -4.5 h 16 16 v -8.5 -8.5 h -16 -16 v -4 -4 h 17.5 17.5 v -9.5 -9.5 h -28.5 -28.5 v 35.5 35.5 h 29 29 z m 125.63812,-25 c 5.63618,-18.425 10.27331,-34.2875 10.30474,-35.25 l 0.0571,-1.75 h -10.44098 c -5.74254,0 -10.66136,0.35657 -10.93071,0.79239 -0.26934,0.43581 -2.8149,9.77331 -5.65678,20.75 -2.84189,10.97668 -5.28017,20.0772 -5.4184,20.22337 -0.13823,0.14617 -2.68173,-9.07883 -5.65223,-20.5 l -5.4009,-20.76576 -10.8672,-0.28502 -10.8672,-0.28502 0.66334,2.78502 c 0.72999,3.06489 17.04683,59.8124 18.70842,65.0651 l 1.0376,3.28007 12.10778,-0.28007 12.10779,-0.28008 z m 71.36188,25 v -9 h -18 -18 v -4.5 -4.5 h 16.04044 16.04044 l -0.29044,-8.25 -0.29044,-8.25 -15.75,-0.27539 -15.75,-0.2754 v -3.9746 -3.97461 h 17.5 17.5 v -9.5 -9.5 h -28.5 -28.5 v 35.5 35.5 h 29 29 z m 25.22793,-9.75 0.27207,-18.75 9.5,17.5 c 5.225,9.625 9.6455,18.0625 9.82332,18.75 l 0.32333,1.25 h 10.92667 10.92668 v -35.5 -35.5 h -9.97793 -9.97794 l -0.27206,18.75 -0.27207,18.75 -9.84409,-18.75 -9.8441,-18.75 h -10.9059 -10.90591 v 35.5 35.5 h 9.97793 9.97794 z"
       id="path1661" />
  </g>
  <path
     style="opacity:1;fill:#ffffff;fill-opacity:1;fill-rule:evenodd;stroke:#ffffff;stroke-width:0.7;stroke-linecap:square;stroke-miterlimit:0;stroke-dasharray:none;stroke-dashoffset:1"
     d="M 71.61617,130.267 V 95.60264 h 9.790023 9.790024 l 0.495009,6.97372 c 0.272255,3.83555 0.495008,8.9983 0.495008,11.47278 0,2.76051 0.290061,4.31978 0.750629,4.03513 0.412847,-0.25515 4.568444,-5.4179 9.234667,-11.47277 l 8.48404,-11.00886 h 12.15662 12.15662 l -2.53539,2.94049 c -1.39447,1.61728 -6.59963,7.44742 -11.56703,12.95587 -4.96739,5.50846 -8.86701,10.44196 -8.66581,10.96335 0.20119,0.52138 6.09292,9.64844 13.09272,20.28236 6.9998,10.63392 12.89443,19.77097 13.09919,20.30455 0.4336,1.12997 -10.61508,2.16361 -18.71028,1.75041 l -4.88283,-0.24923 -7.30683,-11.91819 c -4.01877,-6.55501 -7.895564,-12.72603 -8.615114,-13.71338 l -1.30827,-1.79518 -3.049657,3.42835 -3.049659,3.42834 -0.02274,10.4755 -0.02273,10.47549 H 81.520275 71.61617 Z"
     id="path2146" />
  <path
     style="opacity:1;fill:#ffffff;fill-opacity:1;fill-rule:evenodd;stroke:#ffffff;stroke-width:0.7;stroke-linecap:square;stroke-miterlimit:0;stroke-dasharray:none;stroke-dashoffset:1"
     d="m 163.1184,165.24943 c -9.03385,-2.42934 -14.61818,-6.93613 -18.28719,-14.75852 l -1.98166,-4.22497 -0.22859,-25.33165 -0.22858,-25.33165 h 9.82582 9.82582 l 0.49387,8.57086 c 0.27162,4.71397 0.49542,15.64478 0.49733,24.29068 l 0.003,15.71982 3.04962,2.75515 c 2.76356,2.49671 3.46303,2.75514 7.45721,2.75514 4.2826,0 4.48779,-0.0959 7.23542,-3.38298 l 2.82782,-3.38299 V 119.26548 95.60264 h 9.9041 9.90411 v 24.99325 c 0,23.22244 -0.11118,25.32247 -1.56911,29.63966 -1.23728,3.66377 -2.49169,5.52638 -5.93154,8.80744 -4.07487,3.88677 -4.8188,4.26819 -11.28625,5.78657 -7.93915,1.86389 -15.58679,2.01316 -21.51166,0.41987 z"
     id="path2185" />
  <path
     style="opacity:1;fill:#ffffff;fill-opacity:1;fill-rule:evenodd;stroke:#ffffff;stroke-width:0.7;stroke-linecap:square;stroke-miterlimit:0;stroke-dasharray:none;stroke-dashoffset:1"
     d="M 236.17669,130.267 V 95.60264 h 9.90411 9.9041 v 25.90304 25.90304 h 14.85616 14.85616 v 8.76133 8.76132 h -24.76027 -24.76026 z"
     id="path2224" />
  <path
     style="opacity:1;fill:#ffffff;fill-opacity:1;fill-rule:evenodd;stroke:#ffffff;stroke-width:0.7;stroke-linecap:square;stroke-miterlimit:0;stroke-dasharray:none;stroke-dashoffset:1"
     d="M 293.31576,130.267 V 95.60264 h 27.80768 27.80768 v 7.99946 7.99947 h -9.78559 c -5.38207,0 -13.43868,0.22352 -17.90357,0.49671 l -8.11799,0.4967 v 4.37384 c 0,3.28557 0.29984,4.4889 1.20509,4.83628 0.6628,0.25434 7.69091,0.46243 15.61801,0.46243 H 344.36 v 7.61855 7.61854 h -15.19213 c -8.35567,0 -15.34096,0.25712 -15.52288,0.57139 -0.18191,0.31426 -0.56965,2.54269 -0.86163,4.95205 l -0.53088,4.38066 h 18.72025 18.72024 v 8.76133 8.76132 h -28.1886 -28.18861 z"
     id="path2263" />
  <path
     style="opacity:1;fill:#ffffff;fill-opacity:1;fill-rule:evenodd;stroke:#ffffff;stroke-width:0.7;stroke-linecap:square;stroke-miterlimit:0;stroke-dasharray:none;stroke-dashoffset:1"
     d="m 379.22503,165.66823 c -10.10538,-1.70158 -15.8806,-5.22393 -19.95032,-12.16785 l -2.72505,-4.64958 V 122.22672 95.60264 h 9.52318 9.52318 v 20.94005 c 0,23.14962 0.46932,26.59613 4.18869,30.75985 2.23165,2.49825 2.39657,2.54896 6.80563,2.09236 5.68215,-0.58843 7.76344,-1.94843 9.62386,-6.28863 1.34617,-3.14049 1.47559,-5.37467 1.47559,-25.47302 V 95.60264 h 9.9789 9.9789 l -0.28812,26.0935 -0.28811,26.09351 -2.07217,3.97427 c -3.96645,7.60735 -9.46724,11.46991 -19.302,13.5535 -5.6678,1.20077 -10.77804,1.30961 -16.47216,0.35081 z"
     id="path2302" />
  <path
     style="opacity:1;fill:#ffffff;fill-opacity:1;fill-rule:evenodd;stroke:#ffffff;stroke-width:0.7;stroke-linecap:square;stroke-miterlimit:0;stroke-dasharray:none;stroke-dashoffset:1"
     d="m 441.46992,163.90174 c -0.5135,-1.49637 -18.48785,-63.98861 -19.04196,-66.20401 l -0.52401,-2.09509 h 9.96541 9.96541 l 1.1139,3.99973 c 0.61264,2.19985 2.89504,10.68501 5.07199,18.85589 4.17184,15.65838 5.03653,18.09199 6.05205,17.03305 0.51833,-0.54049 10.66026,-38.07575 10.66026,-39.4536 0,-0.23929 4.62826,-0.43507 10.28503,-0.43507 5.65677,0 10.28503,0.14795 10.28503,0.32879 0,0.65772 -20.39751,67.55658 -20.67024,67.79336 -0.15441,0.13405 -5.36167,0.42558 -11.57168,0.64784 -8.13799,0.29127 -11.37478,0.15977 -11.59119,-0.47089 z"
     id="path2341" />
  <path
     style="opacity:1;fill:#ffffff;fill-opacity:1;fill-rule:evenodd;stroke:#ffffff;stroke-width:0.7;stroke-linecap:square;stroke-miterlimit:0;stroke-dasharray:none;stroke-dashoffset:1"
     d="M 490.63601,130.267 V 95.60264 h 27.04583 27.04582 v 7.99946 7.99947 l -9.71364,0.004 c -5.3425,0.002 -13.05628,0.22529 -17.14172,0.49583 l -7.42808,0.49189 v 4.37471 c 0,3.28636 0.29981,4.48976 1.20509,4.83715 0.6628,0.25432 7.69091,0.46241 15.61801,0.46241 h 14.41293 v 7.61855 7.61854 h -15.99894 -15.99894 v 4.95205 4.95205 h 17.90357 17.90358 v 8.76133 8.76132 h -27.42676 -27.42675 z"
     id="path2380" />
  <path
     style="opacity:1;fill:#ffffff;fill-opacity:1;fill-rule:evenodd;stroke:#ffffff;stroke-width:0.7;stroke-linecap:square;stroke-miterlimit:0;stroke-dasharray:none;stroke-dashoffset:1"
     d="M 552.34621,130.24609 V 95.5608 l 10.75666,0.21138 10.75667,0.21138 9.5533,18.09404 c 5.25431,9.95172 9.84176,18.09404 10.19432,18.09404 0.35257,0 0.64103,-8.22803 0.64103,-18.2845 v -18.2845 h 9.52318 9.52318 v 34.66436 34.66437 h -9.83066 -9.83065 l -9.56135,-17.71311 c -5.25875,-9.74221 -10.08058,-18.39878 -10.71518,-19.23682 -1.05218,-1.38947 -1.15597,-0.74567 -1.17807,7.30762 -0.0133,4.85723 -0.24879,13.5138 -0.52326,19.23682 l -0.49904,10.40549 h -9.40507 -9.40506 z"
     id="path2419" />
</svg>
