<?xml version="1.0" encoding="UTF-8" standalone="no"?>
<svg
   width="400"
   height="400"
   viewBox="0 0 400 400"
   version="1.1"
   id="svg8"
   sodipodi:docname="logo.svg"
   inkscape:version="1.1.1 (3bf5ae0d25, 2021-09-20)"
   xmlns:inkscape="http://www.inkscape.org/namespaces/inkscape"
   xmlns:sodipodi="http://sodipodi.sourceforge.net/DTD/sodipodi-0.dtd"
   xmlns="http://www.w3.org/2000/svg"
   xmlns:svg="http://www.w3.org/2000/svg">
  <defs
     id="defs12" />
  <sodipodi:namedview
     id="namedview10"
     pagecolor="#ffffff"
     bordercolor="#666666"
     borderopacity="1.0"
     inkscape:pageshadow="2"
     inkscape:pageopacity="0.0"
     inkscape:pagecheckerboard="0"
     showgrid="false"
     inkscape:zoom="1"
     inkscape:cx="417.5"
     inkscape:cy="172"
     inkscape:window-width="1920"
     inkscape:window-height="1059"
     inkscape:window-x="0"
     inkscape:window-y="0"
     inkscape:window-maximized="1"
     inkscape:current-layer="svg8" />
  <circle
     style="fill:#d8d8d8;fill-opacity:1;stroke:none;stroke-width:0.934;stroke-miterlimit:4;stroke-dasharray:5.604, 5.604;stroke-dashoffset:0"
     id="path1281"
     cx="200"
     cy="105"
     r="35" />
  <circle
     style="fill:#6f6f6f;fill-opacity:1;stroke:none;stroke-width:0.666988;stroke-miterlimit:3;stroke-dasharray:4.00194, 4.00194"
     id="path1281-1"
     cx="200"
     cy="105"
     r="25" />
  <circle
     style="fill:#d8d8d8;fill-opacity:1;stroke:none;stroke-width:0.933784;stroke-miterlimit:3;stroke-dasharray:5.60271, 5.60271"
     id="path1281-6-1"
     cx="286.60156"
     cy="255"
     r="35" />
  <path
     id="path1066"
     style="fill:#4063d8;fill-opacity:1;stroke:none;stroke-width:2;stroke-miterlimit:4;stroke-dasharray:none;stroke-dashoffset:0;stroke-opacity:1"
     d="M 200,10 A 190,190 0 0 0 10,200 190,190 0 0 0 200,390 190,190 0 0 0 390,200 190,190 0 0 0 200,10 Z m 0,60 a 35,35 0 0 1 1.7168,0.04297 35,35 0 0 1 1.71289,0.125 35,35 0 0 1 1.70508,0.210937 35,35 0 0 1 1.69335,0.292969 35,35 0 0 1 1.67579,0.376953 35,35 0 0 1 1.65625,0.458984 35,35 0 0 1 1.63086,0.539063 35,35 0 0 1 1.60351,0.617187 35,35 0 0 1 1.57031,0.697266 35,35 0 0 1 1.53321,0.771484 35,35 0 0 1 1.49609,0.847657 35,35 0 0 1 1.45117,0.917969 35,35 0 0 1 1.4043,0.990234 35,35 0 0 1 1.35351,1.05664 35,35 0 0 1 1.30079,1.121094 35,35 0 0 1 1.24414,1.185547 35,35 0 0 1 1.18554,1.244141 35,35 0 0 1 1.1211,1.300781 35,35 0 0 1 1.05664,1.353516 35,35 0 0 1 0.99023,1.404297 35,35 0 0 1 0.91797,1.451171 35,35 0 0 1 0.84766,1.496094 35,35 0 0 1 0.77148,1.533203 35,35 0 0 1 0.69727,1.570313 35,35 0 0 1 0.61718,1.603515 35,35 0 0 1 0.53907,1.63086 35,35 0 0 1 0.45898,1.65625 35,35 0 0 1 0.37695,1.675781 35,35 0 0 1 0.29297,1.693359 35,35 0 0 1 0.21094,1.705075 35,35 0 0 1 0.125,1.71289 A 35,35 0 0 1 235,105 a 35,35 0 0 1 -0.35547,4.98047 35,35 0 0 1 -1.0625,4.88086 35,35 0 0 1 -1.74414,4.67773 35,35 0 0 1 -2.39453,4.38282 35,35 0 0 1 -2.99219,3.99804 35,35 0 0 1 -3.53125,3.53125 35,35 0 0 1 -3.99804,2.99219 35,35 0 0 1 -4.38282,2.39453 35,35 0 0 1 -4.67773,1.74414 35,35 0 0 1 -4.88086,1.0625 A 35,35 0 0 1 200,140 a 35,35 0 0 1 -4.98047,-0.35547 35,35 0 0 1 -4.88086,-1.0625 35,35 0 0 1 -4.67773,-1.74414 35,35 0 0 1 -4.38282,-2.39453 35,35 0 0 1 -3.99804,-2.99219 35,35 0 0 1 -3.53125,-3.53125 35,35 0 0 1 -2.99219,-3.99804 35,35 0 0 1 -2.39453,-4.38282 35,35 0 0 1 -1.74414,-4.67773 35,35 0 0 1 -1.0625,-4.88086 A 35,35 0 0 1 165,105 a 35,35 0 0 1 0.35547,-4.98047 35,35 0 0 1 1.0625,-4.880858 35,35 0 0 1 1.74414,-4.677734 35,35 0 0 1 2.39453,-4.382813 35,35 0 0 1 2.99219,-3.998047 35,35 0 0 1 3.53125,-3.53125 35,35 0 0 1 3.99804,-2.992187 35,35 0 0 1 4.38282,-2.394532 35,35 0 0 1 4.67773,-1.74414 35,35 0 0 1 4.88086,-1.0625 A 35,35 0 0 1 200,70 Z m -86.60156,110 c 41.42187,0 75,33.57812 75,75 0,41.42187 -33.57813,75 -75,75 -41.421882,0 -75.000002,-33.57813 -75.000002,-75 0,-41.42188 33.578121,-75 75.000002,-75 z m 173.20312,0 c 41.42188,0 75,33.57812 75,75 0,41.42187 -33.57812,75 -75,75 -41.42187,0 -75,-33.57813 -75,-75 0,-41.42188 33.57813,-75 75,-75 z" />
  <path
     id="path1413"
     d="m 200,30 c -41.42188,0 -75,33.578125 -75,75 0,41.42187 33.57812,75 75,75 41.42187,0 75,-33.57813 75,-75 0,-41.421875 -33.57813,-75 -75,-75 z m 0,40 a 35,35 0 0 1 1.7168,0.04297 35,35 0 0 1 1.71289,0.125 35,35 0 0 1 1.70508,0.210937 35,35 0 0 1 1.69335,0.292969 35,35 0 0 1 1.67579,0.376953 35,35 0 0 1 1.65625,0.458984 35,35 0 0 1 1.63086,0.539063 35,35 0 0 1 1.60351,0.617187 35,35 0 0 1 1.57031,0.697266 35,35 0 0 1 1.53321,0.771484 35,35 0 0 1 1.49609,0.847657 35,35 0 0 1 1.45117,0.917969 35,35 0 0 1 1.4043,0.990234 35,35 0 0 1 1.35351,1.05664 35,35 0 0 1 1.30079,1.121094 35,35 0 0 1 1.24414,1.185547 35,35 0 0 1 1.18554,1.244141 35,35 0 0 1 1.1211,1.300781 35,35 0 0 1 1.05664,1.353516 35,35 0 0 1 0.99023,1.404297 35,35 0 0 1 0.91797,1.451171 35,35 0 0 1 0.84766,1.496094 35,35 0 0 1 0.77148,1.533203 35,35 0 0 1 0.69727,1.570313 35,35 0 0 1 0.61718,1.603515 35,35 0 0 1 0.53907,1.63086 35,35 0 0 1 0.45898,1.65625 35,35 0 0 1 0.37695,1.675781 35,35 0 0 1 0.29297,1.693359 35,35 0 0 1 0.21094,1.705075 35,35 0 0 1 0.125,1.71289 A 35,35 0 0 1 235,105 a 35,35 0 0 1 -0.35547,4.98047 35,35 0 0 1 -1.0625,4.88086 35,35 0 0 1 -1.74414,4.67773 35,35 0 0 1 -2.39453,4.38282 35,35 0 0 1 -2.99219,3.99804 35,35 0 0 1 -3.53125,3.53125 35,35 0 0 1 -3.99804,2.99219 35,35 0 0 1 -4.38282,2.39453 35,35 0 0 1 -4.67773,1.74414 35,35 0 0 1 -4.88086,1.0625 A 35,35 0 0 1 200,140 a 35,35 0 0 1 -4.98047,-0.35547 35,35 0 0 1 -4.88086,-1.0625 35,35 0 0 1 -4.67773,-1.74414 35,35 0 0 1 -4.38282,-2.39453 35,35 0 0 1 -3.99804,-2.99219 35,35 0 0 1 -3.53125,-3.53125 35,35 0 0 1 -2.99219,-3.99804 35,35 0 0 1 -2.39453,-4.38282 35,35 0 0 1 -1.74414,-4.67773 35,35 0 0 1 -1.0625,-4.88086 A 35,35 0 0 1 165,105 a 35,35 0 0 1 0.35547,-4.98047 35,35 0 0 1 1.0625,-4.880858 35,35 0 0 1 1.74414,-4.677734 35,35 0 0 1 2.39453,-4.382813 35,35 0 0 1 2.99219,-3.998047 35,35 0 0 1 3.53125,-3.53125 35,35 0 0 1 3.99804,-2.992187 35,35 0 0 1 4.38282,-2.394532 35,35 0 0 1 4.67773,-1.74414 35,35 0 0 1 4.88086,-1.0625 A 35,35 0 0 1 200,70 Z"
     style="fill:#389826;fill-opacity:1;stroke:none;stroke-opacity:1;stroke-width:3;stroke-miterlimit:4;stroke-dasharray:none" />
  <path
     id="path1413-0-8"
     d="m 286.60156,180 c -41.42188,0 -75,33.57812 -75,74.99999 0,41.42187 33.57812,75 75,75 41.42187,0 75,-33.57813 75,-75 0,-41.42187 -33.57813,-74.99999 -75,-74.99999 z m 0,40 a 35,35 0 0 1 1.7168,0.043 35,35 0 0 1 1.71289,0.125 35,35 0 0 1 1.70508,0.21093 35,35 0 0 1 1.69335,0.29297 35,35 0 0 1 1.67579,0.37696 35,35 0 0 1 1.65625,0.45898 35,35 0 0 1 1.63086,0.53906 35,35 0 0 1 1.60351,0.61719 35,35 0 0 1 1.57031,0.69727 35,35 0 0 1 1.53321,0.77148 35,35 0 0 1 1.49609,0.84765 35,35 0 0 1 1.45117,0.91797 35,35 0 0 1 1.4043,0.99024 35,35 0 0 1 1.35351,1.05664 35,35 0 0 1 1.30079,1.12109 35,35 0 0 1 1.24414,1.18555 35,35 0 0 1 1.18554,1.24414 35,35 0 0 1 1.1211,1.30078 35,35 0 0 1 1.05664,1.35351 35,35 0 0 1 0.99023,1.4043 35,35 0 0 1 0.91797,1.45117 35,35 0 0 1 0.84766,1.4961 35,35 0 0 1 0.77148,1.5332 35,35 0 0 1 0.69727,1.57031 35,35 0 0 1 0.61718,1.60352 35,35 0 0 1 0.53907,1.63086 35,35 0 0 1 0.45898,1.65625 35,35 0 0 1 0.37695,1.67578 35,35 0 0 1 0.29297,1.69336 35,35 0 0 1 0.21094,1.70508 35,35 0 0 1 0.125,1.71289 35,35 0 0 1 0.043,1.71679 35,35 0 0 1 -0.35547,4.98047 35,35 0 0 1 -1.0625,4.88086 35,35 0 0 1 -1.74414,4.67773 35,35 0 0 1 -2.39453,4.38282 35,35 0 0 1 -2.99219,3.99804 35,35 0 0 1 -3.53125,3.53125 35,35 0 0 1 -3.99804,2.99219 35,35 0 0 1 -4.38282,2.39453 35,35 0 0 1 -4.67773,1.74414 35,35 0 0 1 -4.88086,1.0625 35,35 0 0 1 -4.98047,0.35547 35,35 0 0 1 -4.98047,-0.35547 35,35 0 0 1 -4.88086,-1.0625 35,35 0 0 1 -4.67773,-1.74414 35,35 0 0 1 -4.38282,-2.39453 35,35 0 0 1 -3.99804,-2.99219 35,35 0 0 1 -3.53125,-3.53125 35,35 0 0 1 -2.99219,-3.99804 35,35 0 0 1 -2.39453,-4.38282 35,35 0 0 1 -1.74414,-4.67773 35,35 0 0 1 -1.0625,-4.88086 35,35 0 0 1 -0.35547,-4.98047 35,35 0 0 1 0.35547,-4.98047 35,35 0 0 1 1.0625,-4.88086 35,35 0 0 1 1.74414,-4.67773 35,35 0 0 1 2.39453,-4.38281 35,35 0 0 1 2.99219,-3.99805 35,35 0 0 1 3.53125,-3.53125 35,35 0 0 1 3.99804,-2.99219 35,35 0 0 1 4.38282,-2.39452 35,35 0 0 1 4.67773,-1.74414 35,35 0 0 1 4.88086,-1.0625 35,35 0 0 1 4.98047,-0.35547 z"
     style="mix-blend-mode:normal;fill:#9558b2;fill-opacity:1;stroke:none;stroke-opacity:1;stroke-width:3;stroke-miterlimit:4;stroke-dasharray:none" />
  <path
     id="path1413-0-9"
     d="m 113.39844,180 c -41.42188,0 -75,33.57812 -75,74.99999 0,41.42187 33.57812,75 75,75 41.42187,0 75,-33.57813 75,-75 0,-41.42187 -33.57813,-74.99999 -75,-74.99999 z m 0,40 a 35,35 0 0 1 1.7168,0.043 35,35 0 0 1 1.71289,0.125 35,35 0 0 1 1.70508,0.21093 35,35 0 0 1 1.69335,0.29297 35,35 0 0 1 1.67579,0.37696 35,35 0 0 1 1.65625,0.45898 35,35 0 0 1 1.63086,0.53906 35,35 0 0 1 1.60351,0.61719 35,35 0 0 1 1.57031,0.69727 35,35 0 0 1 1.53321,0.77148 35,35 0 0 1 1.49609,0.84765 35,35 0 0 1 1.45117,0.91797 35,35 0 0 1 1.4043,0.99024 35,35 0 0 1 1.35351,1.05664 35,35 0 0 1 1.30079,1.12109 35,35 0 0 1 1.24414,1.18555 35,35 0 0 1 1.18554,1.24414 35,35 0 0 1 1.1211,1.30078 35,35 0 0 1 1.05664,1.35351 35,35 0 0 1 0.99023,1.4043 35,35 0 0 1 0.91797,1.45117 35,35 0 0 1 0.84766,1.4961 35,35 0 0 1 0.77148,1.5332 35,35 0 0 1 0.69727,1.57031 35,35 0 0 1 0.61718,1.60352 35,35 0 0 1 0.53907,1.63086 35,35 0 0 1 0.45898,1.65625 35,35 0 0 1 0.37695,1.67578 35,35 0 0 1 0.29297,1.69336 35,35 0 0 1 0.21094,1.70508 35,35 0 0 1 0.125,1.71289 35,35 0 0 1 0.043,1.71679 35,35 0 0 1 -0.35547,4.98047 35,35 0 0 1 -1.0625,4.88086 35,35 0 0 1 -1.74414,4.67773 35,35 0 0 1 -2.39453,4.38282 35,35 0 0 1 -2.99219,3.99804 35,35 0 0 1 -3.53125,3.53125 35,35 0 0 1 -3.99804,2.99219 35,35 0 0 1 -4.38282,2.39453 35,35 0 0 1 -4.67773,1.74414 35,35 0 0 1 -4.88086,1.0625 35,35 0 0 1 -4.98047,0.35547 35,35 0 0 1 -4.98047,-0.35547 35,35 0 0 1 -4.88086,-1.0625 35,35 0 0 1 -4.67773,-1.74414 35,35 0 0 1 -4.38282,-2.39453 35,35 0 0 1 -3.99804,-2.99219 35,35 0 0 1 -3.53125,-3.53125 35,35 0 0 1 -2.99219,-3.99804 35,35 0 0 1 -2.39453,-4.38282 35,35 0 0 1 -1.74414,-4.67773 35,35 0 0 1 -1.0625,-4.88086 35,35 0 0 1 -0.35547,-4.98047 35,35 0 0 1 0.35547,-4.98047 35,35 0 0 1 1.0625,-4.88086 35,35 0 0 1 1.74414,-4.67773 35,35 0 0 1 2.39453,-4.38281 35,35 0 0 1 2.99219,-3.99805 35,35 0 0 1 3.53125,-3.53125 35,35 0 0 1 3.99804,-2.99219 35,35 0 0 1 4.38282,-2.39452 35,35 0 0 1 4.67773,-1.74414 35,35 0 0 1 4.88086,-1.0625 35,35 0 0 1 4.98047,-0.35547 z"
     style="fill:#cb3c33;fill-opacity:1;stroke:none;stroke-opacity:1;stroke-width:3;stroke-miterlimit:4;stroke-dasharray:none" />
  <circle
     style="fill:#d8d8d8;fill-opacity:1;stroke:none;stroke-width:0.933784;stroke-miterlimit:3;stroke-dasharray:5.60272, 5.60272"
     id="path1281-6-9"
     cx="113.39844"
     cy="255"
     r="35" />
  <circle
     style="fill:#6f6f6f;fill-opacity:1;stroke:none;stroke-width:0.733687;stroke-miterlimit:3;stroke-dasharray:4.40213, 4.40213"
     id="path1281-6-9-0"
     cx="113.39844"
     cy="255"
     r="27.5" />
  <path
     id="path3141"
     style="fill:#6f6f6f;fill-opacity:1;stroke:none;stroke-width:3.96361;stroke-miterlimit:4;stroke-dasharray:none;stroke-dashoffset:0;stroke-opacity:1"
     d="M 200,0 A 200,200 0 0 0 0,200 200,200 0 0 0 200,400 200,200 0 0 0 400,200 200,200 0 0 0 200,0 Z m 0,10 A 190,190 0 0 1 390,200 190,190 0 0 1 200,390 190,190 0 0 1 10,200 190,190 0 0 1 200,10 Z" />
  <circle
     style="fill:#6f6f6f;fill-opacity:1;stroke:none;stroke-width:0.733687;stroke-miterlimit:3;stroke-dasharray:4.40213, 4.40213"
     id="path1281-6-1-3"
     cx="286.60156"
     cy="255"
     r="27.5" />
</svg>
